Coordinates
version=1
nRows=17
nColumns=36
inDegrees=yes

Units are S.I. units (second, meters, Newtons, ...)
If the header above contains a line with 'inDegrees', this indicates whether rotational values are in degrees (yes) or radians (no).

endheader
time	pelvis_tilt	pelvis_list	pelvis_rotation	pelvis_tx	pelvis_ty	pelvis_tz	hip_flexion_r	hip_adduction_r	hip_rotation_r	knee_angle_r	knee_angle_r_beta	ankle_angle_r	subtalar_angle_r	mtp_angle_r	hip_flexion_l	hip_adduction_l	hip_rotation_l	knee_angle_l	knee_angle_l_beta	ankle_angle_l	subtalar_angle_l	mtp_angle_l	lumbar_extension	lumbar_bending	lumbar_rotation	arm_flex_r	arm_add_r	arm_rot_r	elbow_flex_r	pro_sup_r	arm_flex_l	arm_add_l	arm_rot_l	elbow_flex_l	pro_sup_l
      7.11666670	    -10.35726055	    -10.22224327	    -75.24340581	      0.43112105	      1.05235837	     -0.45449300	     54.43639072	     -0.73946215	     -4.85482701	    105.62186844	      1.84344937	     15.26255025	    -25.35826418	     -7.49999987	     -1.84353097	    -15.84103261	    -17.47185910	     16.18005880	      0.28239530	      3.25729737	    -22.54310469	     -7.49999987	    -38.39573414	      0.50335805	     -3.86610039	     -0.13624550	    -30.26729812	     -0.76496767	     26.97053021	     93.59516105	      8.00150671	    -33.82542700	     11.22527177	     52.42073198	     90.77588289
      7.13333330	    -10.89093707	    -10.11015885	    -76.62097298	      0.42315886	      1.05022772	     -0.45740826	     53.88720983	     -0.62734052	     -5.78985963	    103.41338365	      1.80490404	     15.63458623	    -25.72425673	     -7.49999987	     -1.24678320	    -16.94008351	    -18.50478979	     17.43412193	      0.30428283	      3.79740692	    -22.77402361	     -7.49999987	    -39.46335469	      0.45894270	     -2.42856426	      1.06497111	    -31.24711587	     -0.51751602	     26.69564527	     92.96679623	      8.47902197	    -33.60896068	     13.03313009	     52.11865095	     90.53493870
      7.15000000	    -11.07975669	     -9.59756178	    -77.87056324	      0.41436960	      1.05238658	     -0.45901895	     53.71624954	     -0.33599201	     -6.46852215	    101.08377133	      1.76424463	     16.42842812	    -25.92124163	     -7.49999987	     -0.22492615	    -17.76731945	    -19.61024230	     18.77021374	      0.32760203	      4.12448639	    -23.35604665	     -7.49999987	    -40.43046767	     -0.15301520	     -1.69948470	      2.58998015	    -31.64463064	     -0.71580847	     26.88260838	     93.10612847	      8.72521498	    -33.83268311	     13.62921226	     51.88966825	     90.76611547
      7.16666670	    -11.63667758	     -8.89923985	    -78.81111602	      0.39963672	      1.05121363	     -0.46501801	     53.71688285	      0.14285596	     -7.81629294	     98.39704712	      1.71735245	     16.64722588	    -26.95454059	     -7.49999987	      1.77925634	    -19.41490642	    -20.86000062	     21.33649893	      0.37239216	      5.85303056	    -22.23405689	     -7.49999987	    -41.33565444	     -0.40627314	     -0.75854273	      4.90330328	    -31.85885688	     -1.70317687	     25.60249188	     93.59981107	     10.59213791	    -34.32138495	     16.16090662	     50.34648838	     91.60018912
      7.18333330	    -11.99384117	     -7.44826027	    -79.57377385	      0.39015549	      1.04989404	     -0.46622951	     54.63996728	      0.62415701	     -8.62809538	     96.08288059	      1.67696262	     16.85780297	    -27.94812885	     -7.49999987	      4.83827074	    -20.94198310	    -21.88024773	     24.49432818	      0.42750667	      7.21592734	    -21.63484734	     -7.49999987	    -41.54982688	     -0.95026923	      1.36835789	      4.39223430	    -31.90337344	     -7.74852327	     26.35457526	     96.51121884	     14.70630564	    -34.45703160	     21.18526064	     47.39124981	     93.56002685
      7.20000000	    -12.75262659	     -5.59010651	    -79.96336377	      0.38291214	      1.04674673	     -0.46785970	     55.93193356	      0.94385314	     -9.98430884	     93.79738770	      1.63707325	     16.48272469	    -29.22216436	     -7.49999987	      8.78508513	    -22.97292758	    -22.52450619	     28.14477227	      0.49121894	      8.88720074	    -20.59092451	     -7.49999987	    -41.09086016	     -1.01949630	      1.47269614	      5.89778381	    -31.96181496	     -9.23277400	     26.06219051	     95.53412760	     14.84055281	    -35.23302571	     22.07058266	     47.79333409	     92.59607042
      7.21666670	    -13.39793362	     -3.42651506	    -80.51793013	      0.37996224	      1.04079813	     -0.46534982	     57.51242902	      0.97106709	    -11.09884737	     91.64987337	      1.59959205	     15.76718688	    -30.44496889	     -7.49999987	     12.59982428	    -24.66733186	    -23.12278246	     31.38927911	      0.54784627	     11.07174020	    -18.97591872	     -7.49999987	    -39.88651611	     -1.24189087	      2.74294095	      5.35617753	    -31.80168539	    -15.31186974	     26.69200096	    100.78100129	     16.67758810	    -35.45225429	     25.06996035	     46.99528496	     94.12988027
      7.23333330	    -14.27013917	     -1.32431750	    -81.01638162	      0.37179235	      1.03389443	     -0.46735844	     59.08019170	      1.16427615	    -12.67255876	     89.76077081	      1.56662099	     15.01568311	    -31.43856910	     -7.49999987	     16.49103205	    -26.67601514	    -23.38897288	     34.70215351	      0.60566684	     12.95520732	    -17.54724563	     -7.49999987	    -38.60855412	     -1.21929774	      3.16150274	      6.15269942	    -32.11067037	    -16.08156190	     26.41902810	    100.09857732	     16.85105308	    -36.59002252	     26.66031527	     48.24652970	     92.75739443
      7.25000000	    -15.06183144	      0.87776420	    -81.23062657	      0.35264288	      1.02579253	     -0.46607649	     60.94370893	      1.28642949	    -14.45240987	     88.37256522	      1.54239223	     14.78039363	    -32.29130185	     -7.49999987	     21.08234601	    -28.66152257	    -22.65150691	     38.60740474	      0.67382633	     14.84139227	    -16.87497041	     -7.49999987	    -37.29410815	     -1.06357040	      3.67841063	      6.98496445	    -32.70142764	    -16.91196240	     26.03640690	    100.04311574	     17.26344124	    -37.57136436	     27.13246224	     49.89583555	     92.75052616
      7.26666670	    -15.67483957	      3.33006234	    -81.60964238	      0.35031644	      1.01571412	     -0.46492116	     63.35429314	      1.59000843	    -16.01032712	     87.70964309	      1.53082206	     15.30346041	    -32.83262128	     -7.49999987	     25.99257959	    -30.52537162	    -21.85287883	     42.86815450	      0.74819044	     16.32172188	    -16.69859133	     -7.49999987	    -35.45179794	     -0.69458451	      4.12092606	      8.02320663	    -33.85764218	    -18.64656428	     25.12896934	     96.85682580	     17.83133515	    -38.02865631	     27.07905406	     50.67655339	     90.61968974
      7.28333330	    -16.18961261	      5.09154804	    -82.11180554	      0.34553849	      1.00904282	     -0.45690887	     64.98994057	      2.11689445	    -17.48508372	     87.33164700	      1.52422478	     16.33799786	    -33.16105056	     -7.49999987	     29.43566188	    -32.30682959	    -21.50017395	     46.14519258	      0.80538554	     17.82086283	    -16.11697616	     -7.49999987	    -34.11388702	     -0.16117262	      4.51201331	      9.08320329	    -35.09611465	    -21.50994629	     24.05046437	     94.65578020	     17.95879335	    -38.84823610	     27.47561560	     51.76904380	     89.59080807
      7.30000000	    -16.62239369	      6.93865712	    -82.63984633	      0.34330262	      0.99816465	     -0.45624442	     67.00145764	      2.67011885	    -18.57173786	     87.32062772	      1.52403246	     17.22195861	    -33.20846163	     -7.49999987	     32.90215932	    -33.87973735	    -20.85752879	     49.29614905	      0.86038011	     18.97111267	    -16.04957200	     -7.49999987	    -32.41685214	      0.34193137	      5.44914077	      8.63566911	    -35.52725305	    -31.65697801	     24.93876248	     98.65656464	     18.88436386	    -39.24689621	     28.52060555	     51.90587337	     93.63208889
      7.31666670	    -17.29944306	      8.46336666	    -82.89535336	      0.32154076	      0.99143346	     -0.44831651	     68.61925062	      3.29774571	    -19.99625962	     87.28587349	      1.52342588	     18.25270531	    -33.12393864	     -7.49999987	     36.00919574	    -35.95866160	    -20.49414778	     52.07561521	      0.90889095	     20.47013110	    -15.27557989	     -7.49999987	    -30.69645796	      0.68938517	      5.58643746	      8.83431563	    -36.08013507	    -34.83860343	     24.73234327	     98.25538194	     18.64112321	    -41.84404142	     28.58830115	     53.99012802	     93.45667834
      7.33333330	    -17.79826537	     10.08630856	    -83.47179523	      0.30969654	      0.97639216	     -0.44403444	     70.58180766	      4.18765632	    -20.92337311	     87.53329999	      1.52774429	     19.15598614	    -32.91178356	     -7.49999987	     38.84390486	    -38.22646775	    -20.64284590	     54.65872575	      0.95397473	     21.79411391	    -14.00076110	     -7.49999987	    -28.63780218	      0.91937550	      6.20110066	      7.65248092	    -36.17393602	    -44.58907010	     27.30090740	     96.43788077	     18.33727609	    -44.45126420	     27.95099227	     55.46786752	     93.04994346
      7.35000000	    -17.49004862	     10.81483313	    -84.48461154	      0.31397231	      0.97624418	     -0.43880091	     71.13098808	      4.89066733	    -20.90608294	     87.52080299	      1.52752618	     19.61370926	    -32.74200888	     -7.49999987	     38.96534136	    -39.28000293	    -21.64689280	     55.58352908	      0.97011559	     22.50530194	    -13.31540057	     -7.49999987	    -27.73496392	      1.43118238	      7.39018314	      8.02187096	    -38.34925998	    -50.15178272	     27.67279287	     93.60217703	     18.71376391	    -45.14877948	     25.46748822	     54.11250708	     92.47096486
      7.36666670	    -16.61221313	     10.52320065	    -85.63008764	      0.30502988	      0.99060991	     -0.43411499	     69.82203293	      5.52729149	    -20.05685349	     86.49479257	      1.50961892	     19.71861192	    -32.55259359	     -7.49999987	     36.26340722	    -39.36779752	    -23.82852194	     54.33626377	      0.94834671	     22.05414580	    -12.81095241	     -7.49999987	    -28.29683283	      1.44464737	      8.32208401	     10.13955277	    -40.45603445	    -54.45858887	     26.41568213	     90.07159506	     19.60432380	    -46.56884976	     24.53779133	     53.00531371	     92.50586535
      7.38333330	    -15.34357053	      9.38922745	    -87.07975336	      0.31173522	      0.99761338	     -0.42793365	     67.38484243	      6.28322111	    -18.41853109	     85.33508519	      1.48937820	     19.75148780	    -32.31355084	     -7.49999987	     31.33358545	    -38.53895323	    -26.99298761	     51.54861971	      0.89969314	     20.86633815	    -12.44545277	     -7.49999987	    -29.49564699	      1.27311011	      9.77374579	     11.32972137	    -43.21455448	    -59.61347686	     25.23092665	     88.36508306	     19.52370752	    -47.14708588	     22.66969409	     53.62161292	     92.89553156
